# xmcd
#
# Track frame offsets:
# 150
# 33045
# 63776
# 94079
# 112778
# 135992
# 165567
# 200764
# 229525
# 258010
# 290513
# 311223
#
# Disc length: 4460 seconds
#
#
# Revision: 0
# Processed by: cddbd v1.5.2PL0 Copyright (c) Steve Scherf et al.
# Submitted via: FreeRIP 2.96 
#
DISCID=94116a0c
DTITLE=Karen Rose - Todesbräute CD4v5
DYEAR=2008
DGENRE=Speech
TTITLE0=39 Todesbräute
TTITLE1=40 Todesbräute
TTITLE2=41 Todesbräute
TTITLE3=42 Todesbräute
TTITLE4=43 Todesbräute
TTITLE5=44 Todesbräute
TTITLE6=45 Todesbräute
TTITLE7=46 Todesbräute
TTITLE8=47 Todesbräute
TTITLE9=48 Todesbräute
TTITLE10=49 Todesbräute
TTITLE11=50 Todesbräute
EXTD=gelesen von Nicole Engeln
EXTT0=
EXTT1=
EXTT2=
EXTT3=
EXTT4=
EXTT5=
EXTT6=
EXTT7=
EXTT8=
EXTT9=
EXTT10=
EXTT11=
PLAYORDER=
